<svg width="173" height="65" viewBox="0 0 173 65" fill="none" xmlns="http://www.w3.org/2000/svg">
<g filter="url(#filter0_d_1584_3045)">
<path d="M26.8049 2.39844L4 55.1976H18.0584L82.26 22.2307L26.0245 36.9205L40.5522 2.39844H26.8049Z" fill="#FDBB11"/>
<path d="M65.0652 55.722H48.7662L47.224 52.1981L30.165 54.1873L58.239 38.8828L65.0652 55.722Z" fill="#494747"/>
<path d="M38.8613 30.4037L52.955 26.9971L43.7057 4.53125L35.9985 23.0262L38.8613 30.4037Z" fill="#494747"/>
<path d="M63.5229 24.2355L79.8183 20.6035C79.8183 20.6035 84.6236 14.5615 90.4049 13.6544C96.1862 12.7474 102.936 16.9697 102.936 16.9697H119.885C119.885 16.9697 116.322 8.27543 107.944 3.31736C102.444 0.0616487 93.0888 -0.433786 87.4677 0.29074C81.8466 1.01527 74.7913 4.60437 70.8222 9.16758C64.9944 15.8802 63.5229 24.2355 63.5229 24.2355Z" fill="#FDBB11"/>
<path d="M168.034 21.7578H95.3726V34.4491H168.034V21.7578Z" fill="#494747"/>
<path d="M168.034 2.35156H121.75V15.0429H168.034V2.35156Z" fill="#FDBB11"/>
<path d="M168.034 41.1641H121.75V53.8554H168.034V41.1641Z" fill="#FDBB11"/>
<path d="M77.6354 27.1094C64.2139 34.8594 64.4505 35.0214 64.4505 35.0214C64.4505 35.0214 66.2664 41.2013 70.3528 46.4499C73.901 51.0076 79.4327 55.4255 85.9236 55.8688C87.6837 56.0029 90.3304 56.4871 93.0907 56.4555C97.5924 56.4052 102.789 55.5484 106.143 53.8591C115.702 49.0445 119.958 39.5437 119.958 39.5437H102.636C102.636 39.5437 92.2451 44.2521 85.9348 41.1752C79.6245 38.0983 77.6354 27.1094 77.6354 27.1094Z" fill="#FDBB11"/>
</g>
<defs>
<filter id="filter0_d_1584_3045" x="0" y="0" width="172.034" height="64.4531" filterUnits="userSpaceOnUse" color-interpolation-filters="sRGB">
<feFlood flood-opacity="0" result="BackgroundImageFix"/>
<feColorMatrix in="SourceAlpha" type="matrix" values="0 0 0 0 0 0 0 0 0 0 0 0 0 0 0 0 0 0 127 0" result="hardAlpha"/>
<feOffset dy="4"/>
<feGaussianBlur stdDeviation="2"/>
<feComposite in2="hardAlpha" operator="out"/>
<feColorMatrix type="matrix" values="0 0 0 0 0 0 0 0 0 0 0 0 0 0 0 0 0 0 0.25 0"/>
<feBlend mode="normal" in2="BackgroundImageFix" result="effect1_dropShadow_1584_3045"/>
<feBlend mode="normal" in="SourceGraphic" in2="effect1_dropShadow_1584_3045" result="shape"/>
</filter>
</defs>
</svg>
