<svg width="186" height="170" viewBox="0 0 186 170" fill="none" xmlns="http://www.w3.org/2000/svg">
<path d="M54.6182 -103.943C76.9942 -126.933 100.503 -134.806 120.532 -136.593C149.269 -139.153 175.435 -130.011 183.025 -98.5266C184.459 -92.564 185.154 -85.4299 182.57 -76.9291C178.536 -63.666 168.007 -51.4687 158.391 -42.3836C134.437 -19.7431 109.847 -5.17421 85.9472 7.53999C63.6872 19.3844 41.6342 29.9303 19.79 39.1782C2.7437 46.4102 -14.4829 52.8612 -29.0014 51.9492C-31.0773 51.8152 -33.2625 51.3392 -33.5486 48.6512C-33.6621 46.8602 -33.1468 44.6232 -32.1094 42.4012C-27.9702 33.0956 -19.6926 27.7551 -13.1933 25.108C19.5192 11.8981 45.1252 22.7737 63.6552 42.0402C69.6022 48.2342 75.1682 56.1432 73.8772 69.7012C72.1582 87.9092 57.9822 110.894 43.4152 124.501C28.848 138.109 14.0791 144.267 0.1213 149.126C-35.084 161.335 -68.6993 167.52 -100 167.545" stroke="#FFB800" stroke-width="3" stroke-miterlimit="10"/>
</svg>
