<svg xmlns="http://www.w3.org/2000/svg" xmlns:xlink="http://www.w3.org/1999/xlink" width="500" zoomAndPan="magnify" viewBox="0 0 375 155.249994" height="207" preserveAspectRatio="xMidYMid meet" version="1.0"><path fill="#ffffff" d="M 88.984375 100.113281 L 103.539062 67.882812 L 109.710938 100.976562 Z M 144.6875 145.453125 L 123.097656 41.816406 L 88.550781 42.679688 L 37.597656 144.589844 L 67.824219 144.589844 L 75.597656 126.453125 L 113.597656 127.316406 L 119.644531 146.316406 Z M 144.6875 145.453125 " fill-opacity="1" fill-rule="evenodd"/><path fill="#b91015" d="M 262.921875 42.808594 L 258.605469 64.832031 L 322.167969 66.128906 L 326.054688 42.378906 Z M 262.921875 42.808594 " fill-opacity="1" fill-rule="evenodd"/><path fill="#ffffff" d="M 316.984375 81.328125 L 257.828125 82.625 L 249.621094 144.804688 L 310.074219 145.667969 L 313.097656 122.785156 L 281.144531 121.488281 L 282.871094 104.648438 L 314.828125 104.214844 Z M 316.984375 81.328125 " fill-opacity="1" fill-rule="evenodd"/><path fill="#b91015" d="M 237.746094 74.414062 C 238.898438 65.851562 240.050781 57.285156 241.203125 48.71875 C 216.097656 39.164062 193.828125 39.929688 175.496094 55.015625 C 156.175781 75.742188 152.160156 99.152344 163.714844 125.292969 C 167.824219 66.277344 197.339844 59.207031 237.746094 74.414062 Z M 237.746094 74.414062 " fill-opacity="1" fill-rule="evenodd"/><path fill="#ffffff" d="M 156.996094 68.804688 C 163.699219 55.160156 172.527344 44.808594 184.414062 39.222656 C 171.796875 25.257812 152.265625 18.570312 128.710938 16.121094 C 149.183594 29.605469 155.253906 48.40625 156.996094 68.804688 Z M 156.996094 68.804688 " fill-opacity="1" fill-rule="evenodd"/><path fill="#ffffff" d="M 230.335938 116.359375 C 191.960938 130.234375 177.71875 116.835938 187.277344 76.546875 C 150.71875 110.039062 166.292969 159.105469 227.085938 142.355469 C 228.167969 133.6875 229.253906 125.023438 230.335938 116.359375 Z M 230.335938 116.359375 " fill-opacity="1" fill-rule="evenodd"/><path fill="#b91015" d="M 211.632812 19.332031 C 211.632812 20.3125 211.539062 21.285156 211.347656 22.25 C 211.15625 23.214844 210.871094 24.148438 210.496094 25.058594 C 210.117188 25.964844 209.65625 26.828125 209.113281 27.644531 C 208.566406 28.460938 207.945312 29.214844 207.25 29.910156 C 206.558594 30.605469 205.800781 31.226562 204.984375 31.773438 C 204.167969 32.316406 203.304688 32.777344 202.398438 33.15625 C 201.488281 33.53125 200.554688 33.8125 199.589844 34.003906 C 198.628906 34.199219 197.652344 34.292969 196.671875 34.292969 C 195.6875 34.292969 194.714844 34.199219 193.753906 34.003906 C 192.789062 33.8125 191.851562 33.53125 190.945312 33.15625 C 190.039062 32.777344 189.175781 32.316406 188.359375 31.773438 C 187.542969 31.226562 186.785156 30.605469 186.09375 29.910156 C 185.398438 29.214844 184.777344 28.460938 184.230469 27.644531 C 183.683594 26.828125 183.222656 25.964844 182.847656 25.058594 C 182.472656 24.148438 182.1875 23.214844 181.996094 22.25 C 181.804688 21.285156 181.710938 20.3125 181.710938 19.332031 C 181.710938 18.347656 181.804688 17.375 181.996094 16.414062 C 182.1875 15.449219 182.472656 14.511719 182.847656 13.605469 C 183.222656 12.699219 183.683594 11.835938 184.230469 11.019531 C 184.777344 10.203125 185.398438 9.445312 186.09375 8.75 C 186.785156 8.058594 187.542969 7.4375 188.359375 6.890625 C 189.175781 6.34375 190.039062 5.882812 190.945312 5.507812 C 191.851562 5.132812 192.789062 4.847656 193.753906 4.65625 C 194.714844 4.464844 195.6875 4.371094 196.671875 4.371094 C 197.652344 4.371094 198.628906 4.464844 199.589844 4.65625 C 200.554688 4.847656 201.488281 5.132812 202.398438 5.507812 C 203.304688 5.882812 204.167969 6.34375 204.984375 6.890625 C 205.800781 7.4375 206.558594 8.058594 207.25 8.75 C 207.945312 9.445312 208.566406 10.203125 209.113281 11.019531 C 209.65625 11.835938 210.117188 12.699219 210.496094 13.605469 C 210.871094 14.511719 211.15625 15.449219 211.347656 16.414062 C 211.539062 17.375 211.632812 18.347656 211.632812 19.332031 Z M 211.632812 19.332031 " fill-opacity="1" fill-rule="nonzero"/></svg>