<svg xmlns="http://www.w3.org/2000/svg" xmlns:xlink="http://www.w3.org/1999/xlink" width="500" zoomAndPan="magnify" viewBox="0 0 375 155.249994" height="207" preserveAspectRatio="xMidYMid meet" version="1.0"><path fill="#373435" d="M 89.007812 100.195312 L 103.566406 67.957031 L 109.742188 101.058594 Z M 144.726562 145.546875 L 123.132812 41.882812 L 88.578125 42.746094 L 37.605469 144.683594 L 67.84375 144.683594 L 75.617188 126.542969 L 113.628906 127.40625 L 119.675781 146.410156 L 144.730469 145.546875 Z M 144.726562 145.546875 " fill-opacity="1" fill-rule="evenodd"/><path fill="#b91015" d="M 262.996094 42.875 L 258.675781 64.90625 L 322.257812 66.199219 L 326.144531 42.445312 Z M 262.996094 42.875 " fill-opacity="1" fill-rule="evenodd"/><path fill="#373435" d="M 317.074219 81.40625 L 257.898438 82.703125 L 249.691406 144.902344 L 310.164062 145.765625 L 313.1875 122.871094 L 281.222656 121.574219 L 282.949219 104.730469 L 314.914062 104.296875 Z M 317.074219 81.40625 " fill-opacity="1" fill-rule="evenodd"/><path fill="#b91015" d="M 237.816406 74.488281 C 238.964844 65.921875 240.117188 57.355469 241.269531 48.789062 C 216.15625 39.230469 193.882812 39.996094 175.542969 55.085938 C 156.21875 75.816406 152.203125 99.234375 163.761719 125.382812 C 167.871094 66.347656 197.394531 59.277344 237.8125 74.488281 Z M 237.816406 74.488281 " fill-opacity="1" fill-rule="evenodd"/><path fill="#373435" d="M 157.039062 68.878906 C 163.746094 55.226562 172.574219 44.875 184.464844 39.289062 C 171.84375 25.320312 152.308594 18.628906 128.746094 16.179688 C 149.222656 29.667969 155.296875 48.472656 157.039062 68.878906 Z M 157.039062 68.878906 " fill-opacity="1" fill-rule="evenodd"/><path fill="#373435" d="M 230.398438 116.445312 C 192.011719 130.324219 177.769531 116.921875 187.328125 76.625 C 150.761719 110.125 166.339844 159.203125 227.148438 142.449219 C 228.234375 133.78125 229.316406 125.113281 230.402344 116.445312 Z M 230.398438 116.445312 " fill-opacity="1" fill-rule="evenodd"/><path fill="#b91015" d="M 211.691406 19.390625 C 211.691406 20.375 211.597656 21.347656 211.40625 22.308594 C 211.214844 23.273438 210.929688 24.210938 210.554688 25.117188 C 210.175781 26.027344 209.714844 26.886719 209.171875 27.707031 C 208.625 28.523438 208.003906 29.277344 207.308594 29.972656 C 206.613281 30.667969 205.859375 31.289062 205.042969 31.835938 C 204.222656 32.378906 203.363281 32.839844 202.453125 33.21875 C 201.546875 33.59375 200.609375 33.878906 199.644531 34.070312 C 198.683594 34.261719 197.710938 34.355469 196.726562 34.355469 C 195.742188 34.355469 194.769531 34.261719 193.808594 34.070312 C 192.84375 33.878906 191.90625 33.59375 191 33.21875 C 190.089844 32.839844 189.230469 32.378906 188.410156 31.835938 C 187.59375 31.289062 186.839844 30.667969 186.144531 29.972656 C 185.449219 29.277344 184.828125 28.523438 184.28125 27.707031 C 183.738281 26.886719 183.277344 26.027344 182.898438 25.117188 C 182.523438 24.210938 182.238281 23.273438 182.046875 22.308594 C 181.855469 21.347656 181.761719 20.375 181.761719 19.390625 C 181.761719 18.40625 181.855469 17.433594 182.046875 16.472656 C 182.238281 15.507812 182.523438 14.570312 182.898438 13.664062 C 183.277344 12.753906 183.738281 11.894531 184.28125 11.074219 C 184.828125 10.257812 185.449219 9.503906 186.144531 8.808594 C 186.839844 8.113281 187.59375 7.492188 188.410156 6.945312 C 189.230469 6.402344 190.089844 5.941406 191 5.5625 C 191.90625 5.1875 192.84375 4.902344 193.808594 4.710938 C 194.769531 4.519531 195.742188 4.425781 196.726562 4.425781 C 197.710938 4.425781 198.683594 4.519531 199.644531 4.710938 C 200.609375 4.902344 201.546875 5.1875 202.453125 5.5625 C 203.363281 5.941406 204.222656 6.402344 205.042969 6.945312 C 205.859375 7.492188 206.613281 8.113281 207.308594 8.808594 C 208.003906 9.503906 208.625 10.257812 209.171875 11.074219 C 209.714844 11.894531 210.175781 12.753906 210.554688 13.664062 C 210.929688 14.570312 211.214844 15.507812 211.40625 16.472656 C 211.597656 17.433594 211.691406 18.40625 211.691406 19.390625 Z M 211.691406 19.390625 " fill-opacity="1" fill-rule="nonzero"/></svg>